<svg xmlns="http://www.w3.org/2000/svg" viewBox="0 0 84.3 25.1">
  <path fill="#EB008B" d="M74.3 25.1c-.2 0-.3 0-.5-.1l-.6-.3c-.5-.3-1.1-.6-1.6-1-4.9-5.1-9.1-6.3-15.8-6.6h-.3c-2.6-.1-3.2-.2-5.9-1.2-6.6-2.8-11.6-3.6-16.7-3.1-4.4.5-9 .6-13.3.8-2.8.1-5.7.2-8.5.4-2.2.1-4.4.5-6.8.8-1.1.2-2.2.4-3.3.5-.3 0-.5 0-.7-.2-.2-.1-.3-.4-.3-.6V9.1c0-.5.3-.8.8-.9 1.1-.1 2.2-.4 3.3-.6 1.8-.4 3.6-.8 5.3-.8.8 0 1.5.1 2.2.2 2.6.6 5.3.9 8.6.9 2.4 0 4.9-.2 7.4-.3 2.4-.2 5-.3 7.5-.3 1.1 0 2.1 0 3.1.1h.1c.9 0 1.9-.6 2.9-1.1.9-.5 1.8-1 2.8-1.3 1.7-.4 3.5-.5 5.3-.6 2.3-.1 4.6-.3 6.6-1.1 3.2-1.4 5.8-1.6 7.9-1.6H68c2.2 0 4.7-.2 8-1.7.4-.2.8-.1 1 .2.3.3.3.7.1 1-1.3 2.6-5.7 4.8-8.3 4.9h-2.3c-2 0-4.1 0-6 .4-2 .3-2.1.4-2.7.5-.4.1-.9.3-2.1.6-.6.2-1.3.2-1.9.3-.8.1-1.6.2-2.3.5-.5.2-1.1.6-1.7 1.2l-.1.1c3 2.1 5.1 2.9 7.1 2.9 2.4 0 4.9-1.2 8.6-3.4.3-.2.6-.2.8 0 .3.1.5.4.5.7l.2 1.1c.1.4-.1.7-.4.9-.6.3-.9.7-1.2 1.2-.2.2-.4.5-.6.8l18.6 1.4c.4 0 .7.3.8.7l.1.3c.1.3 0 .5-.1.8-.2.2-.4.4-.7.4l-12.2.8c.6.6 1.2 1.1 1.7 1.6.8.8 1.6 1.6 2.8 2.5.2.2.3.4.3.6s-.1.5-.2.7l-.9 1c-.1.2-.4.4-.6.4zM35.8 10.9c4.4 0 8.9 1 14.5 3.2 2.4.9 2.8 1 5.3 1.1h.3c5.5.3 9.6 1.1 13.6 4.2-.4-.3-.7-.6-1.2-1-.3-.2-.4-.6-.3-1 .1-.4.4-.6.8-.6l4.4-.3-10.2-.9c-.2 0-.5-.1-.6-.3-.2-.2-.2-.4-.2-.7l.1-.7c0-.3.2-.5.5-.7.4-.2.7-.5.9-.8-2.6 1.3-4.6 2-6.7 2-2.7 0-5.3-1.2-9.1-4-.2-.2-.4-.4-.4-.7s.1-.6.4-.7c.4-.3.7-.5 1-.8.7-.6 1.4-1.2 2.2-1.5.9-.3 1.8-.5 2.7-.6.6-.1 1.1-.2 1.7-.3 1.2-.3 1.7-.5 2.1-.6.6-.2.8-.2 2.9-.6 2.1-.3 4.2-.4 6.3-.4h2.3c1 0 2.5-.6 3.8-1.3-1.8.4-3.3.5-4.7.5h-4.3c-1.9 0-4.3.2-7.2 1.4-2.3 1-4.8 1.1-7.2 1.2-1.7.1-3.4.2-5 .6-.8.2-1.5.6-2.3 1.1-1.3.7-2.6 1.5-4.1 1.4-.9-.1-1.9-.1-3-.1-2.4 0-4.9.2-7.3.3-2.4.2-5 .3-7.5.3-3.5 0-6.3-.3-9.1-.9-.5-.1-1.1-.2-1.8-.2-1.5.1-3.2.5-4.9.8l-2.7.6v3.5c.8-.1 1.5-.2 2.2-.3 2.4-.4 4.6-.7 6.9-.8 2.8-.2 5.7-.3 8.5-.4 4.3-.2 8.8-.3 13.2-.8 1.1-.2 2.2-.2 3.2-.2z"/>
</svg>
