<svg xmlns="http://www.w3.org/2000/svg" viewBox="0 0 37.8 37.8">
  <path fill="#EB008B" d="M37.3 14.7C35 4.6 24.9-1.8 14.7.5S-1.8 12.9.5 23c1.6 7.1 7.2 12.7 14.3 14.3 1.4.3 2.8.5 4.2.5 10.4 0 18.8-8.5 18.8-18.9 0-1.4-.2-2.8-.5-4.2zm-29.6-7c3-3 7-4.7 11.2-4.6.6 0 1.1 0 1.7.1l-.2.4-.8 1.5c-1.5 3.2-3.5 6.1-5.8 8.7-2.6 2.4-5.5 4.3-8.6 5.8l-1.5.8-.4.2c-.7-4.8 1-9.5 4.4-12.9zm7 25.3l-.5 1.1c-5-1.5-8.9-5.5-10.4-10.5l1.1-.5.1-.1 1.6-.8c3.4-1.6 6.6-3.7 9.4-6.3 2.6-2.8 4.7-6 6.3-9.4.2-.5.5-1 .7-1.5l.1-.1.5-1.1c5 1.5 9 5.5 10.5 10.5l-1.1.4h-.1l-1.6.8c-3.4 1.6-6.6 3.7-9.4 6.3-2.6 2.8-4.7 5.9-6.3 9.4-.3.5-.6 1.1-.8 1.6l-.1.2zm15.4-2.9c-3.4 3.4-8.1 5.1-12.9 4.5l.2-.4.8-1.5c1.5-3.2 3.4-6.1 5.8-8.6 2.6-2.4 5.5-4.3 8.6-5.8l1.5-.8.4-.2c.7 4.7-1 9.4-4.4 12.8z"/>
</svg>
