<svg xmlns="http://www.w3.org/2000/svg" viewBox="0 0 506.4 819.4">
  <path fill="none" stroke="#EB008B" stroke-miterlimit="10" stroke-width="15" d="M40.3 738.4l163.1 69.2c20.4 8.6 43.6 4.1 59.2-11.5 6.1-6.1 10.5-13.4 13.1-21.4L332.9 611c2.1-5.7 4.3-11.5 6.6-17.1l69.8-164.4 3-7.3c3-7.1 6.4-14.1 10-21l34.3-65.4c32-61 24.7-89.2 10.2-145.7-1.7-6.4-3.4-13.2-5.2-20.4l-6.4-25.8 12.9-30.4c5.4 2.2 11.7-.4 14-5.8L498 70.2c1.1-2.6 1.2-5.6.1-8.3-1.1-2.6-3.2-4.7-5.7-5.9L379.9 8.4c-4.2-1.8-8.8-.7-11.8 2.3-.9.9-1.7 2.1-2.3 3.4l-15.9 37.4c-1.1 2.6-1.2 5.6-.1 8.3 1.1 2.6 3.1 4.7 5.7 5.8L342.6 96l-23 13.4c-6.4 3.7-12.6 7.2-18.2 10.5-25.6 14.6-44.1 25-59.7 40.6-16.3 16.3-27.6 36.6-38 68l-23.2 70.1c-2.4 7.4-5.2 14.6-8.2 21.8l-66.9 157.5-6 14.1c-2.3 5.6-5 11.2-7.8 16.7L13.9 663.3c-7.1 13.4-8.3 29.1-3.3 43.3 4.9 14.4 15.7 26 29.7 31.8z"/>
  <path fill="#EB008B" d="M129.43045 476.44829l55.34802-130.43485 200.4849 85.07268-55.34802 130.43485z"/>
</svg>
