<svg xmlns="http://www.w3.org/2000/svg" id="Слой_1" viewBox="0 0 70.4 91.2">
  <style>
    .st0,.st1{fill:none;stroke:#FFF;stroke-width:3;stroke-linecap:round;stroke-linejoin:round;stroke-miterlimit:10}.st1{stroke-width:2}.st2{fill:#FFF}
  </style>
  <path d="M12.2 44.2s.9 3.4-2.7 5.1c-1.4.7-9 4.8-7.6 12.6.6 4 10.2 27.8 33.1 27.8s32.3-20.8 32.9-27.9c.8-8.7-11-11.4-11-15.1-.6-4.2.4-13.3-10.1-14.2-10.8-.9-12.1 11-12.1 11s.9-10.9-11.5-10.9c-7.4 0-9.9 6.5-9.9 6.5" class="st0"/>
  <path d="M19.5 59.1s.2 9.2 6 12.2 9.4-1.4 9.4-1.4 2 3.4 7.8 2.5c5.9-1 6.6-10.4 7-12.8M34.9 65.2v5.2" class="st0"/>
  <path d="M24.8 83.2v4M27.8 88.7v-2.5M45.1 83.5v4M42.3 88.7v-2.5" class="st1"/>
  <path d="M33.9 16.7l-1.4 4.8M37.4 16.6l-.9 2.9" class="st0"/>
  <path d="M41 61c0 2.4-2.7 6.4-6 6.4s-6-4-6-6.4 2.7-2.4 6-2.4 6 0 6 2.4z" class="st2"/>
  <circle cx="23.2" cy="44.2" r="3" class="st2"/>
  <circle cx="46.8" cy="44.2" r="3" class="st2"/>
  <path d="M1.7 59.9c-1.4-15.4 5-27 5-27s-1.3-5.5-.2-11.3c1.4-7.2 4.7-8.1 8.5-17.9 3.1-9.1 8.8 13.2 12.8 14 2.7-.7 4.5-1.1 7.1-1.2 2.8-.1 5.2 1.1 7.2.8 3.2-1.7 9.8-19.6 11.6-14.8 2.9 8.1 9.9 13.7 10 20 .1 4.2 0 10.5 0 10.5s7.8 12.7 4.3 27.7" class="st0"/>
  <path d="M57.1 26.5c-2.2 0-7.9-3.6-8.6-5.8-1.1-3.7 3.6-11.8 4.4-7.9.9 3.8 6.4 11 4.2 13.7zM12.7 26.5c2.2 0 7.9-3.6 8.6-5.8 1.1-3.7-3.6-11.8-4.4-7.9-.9 3.8-6.4 11-4.2 13.7z" class="st2"/>
</svg>
