<svg xmlns="http://www.w3.org/2000/svg" viewBox="0 0 48.1 30.5">
  <path fill="#FFF" d="M44.3 3.6c-.6 0-1.2.2-1.7.4v-.3c0-2-1.6-3.7-3.7-3.7-2 0-3.7 1.6-3.7 3.7v7.6H12.8V3.7c0-2-1.6-3.7-3.7-3.7-2 0-3.7 1.6-3.7 3.7V4c-.5-.3-1.1-.4-1.7-.4-2 0-3.7 1.6-3.7 3.7v15.9c0 2 1.6 3.7 3.7 3.7.6 0 1.2-.2 1.7-.4v.3c0 2 1.6 3.7 3.7 3.7 2 0 3.7-1.6 3.7-3.7v-7.6h22.5v7.6c0 2 1.6 3.7 3.7 3.7 2 0 3.7-1.6 3.7-3.7v-.3c.5.3 1.1.4 1.7.4 2 0 3.7-1.6 3.7-3.7v-16c-.1-2-1.7-3.6-3.8-3.6zM3.9 24.8c-.9 0-1.7-.7-1.7-1.7V7.2c0-.9.7-1.7 1.7-1.7.9 0 1.7.7 1.7 1.7v16c-.1.9-.8 1.6-1.7 1.6zm6.9 1.9c0 .9-.7 1.7-1.7 1.7-.9 0-1.7-.7-1.7-1.7v-23c0-.9.7-1.7 1.7-1.7.9 0 1.7.7 1.7 1.7v23zm2-9.6v-3.8h22.5v3.8H12.8zm27.9 9.6c0 .9-.7 1.7-1.7 1.7-.9 0-1.7-.7-1.7-1.7v-23c0-.9.7-1.7 1.7-1.7.9 0 1.7.7 1.7 1.7v23zm5.3-3.5c0 .9-.7 1.7-1.7 1.7-.9 0-1.7-.7-1.7-1.7v-16c0-.9.7-1.7 1.7-1.7.9 0 1.7.7 1.7 1.7v16z"/>
</svg>
