<svg xmlns="http://www.w3.org/2000/svg" id="Слой_1" viewBox="0 0 236 194.6">
  <style>
    .st0{fill:none;stroke:#fff;stroke-width:6;stroke-linecap:round;stroke-linejoin:round;stroke-miterlimit:10}
  </style>
  <path d="M20 170.3h211M58.7 191.6V83.9M48.2 62l10.5 21.9m15.8-11l-15.8 11m4-18.4l-8.4 5.8" class="st0"/>
  <circle cx="58.7" cy="58.7" r="55.7" class="st0"/>
  <path d="M196 177v-71.5m6.9-14.6l-6.9 14.6m-10.5-7.4l10.5 7.4m-2.7-12.3l5.6 3.8" class="st0"/>
  <circle cx="196" cy="88.7" r="37" class="st0"/>
  <path d="M79.5 152.5h86.7v6.7H79.5v-6.7zm0-30h86.7v15.7H79.5v-15.7z" class="st0"/>
  <path d="M86.7 138.1h4.7v14.3h-4.7v-14.3zm67.6 0h4.7v14.3h-4.7v-14.3zm-67.6 21h4.7v14.3h-4.7v-14.3zm67.6 0h4.7v14.3h-4.7v-14.3z" class="st0"/>
</svg>
