<svg xmlns="http://www.w3.org/2000/svg" viewBox="0 0 72.5 72.1">
  <path fill="#FFF" d="M40.2 2c2.7 0 5.2 4 5.4 8.6.2 5.2-1.4 11.3-1.4 11.4-.2.6 0 1.2.3 1.7.4.5 1 .8 1.6.8l16.5-.1c3.3 0 6.3 2.6 6.6 5.8.2 1.5-.2 3-1.1 4.2-.6.8-.5 2 .3 2.7 1.3 1.2 2.1 2.9 2.1 4.7 0 1.8-.8 3.6-2.3 4.9-.6.6-.8 1.4-.5 2.2.3.7.5 1.6.5 2.5 0 2.4-1.3 4.5-3.4 5.6-.9.5-1.3 1.5-1 2.5.2.5.3 1 .3 1.6v.1c.1 1.7-.5 3.2-1.7 4.4-1.3 1.3-3.1 2-4.8 2H32.2c-3.1 0-6-1.1-8.4-3.2-.4-.3-.8-.5-1.3-.5-.3 0-.6.1-.8.2-.7.3-1.2 1-1.2 1.8v.8c0 1.9-1.5 3.4-3.4 3.4H5.4c-1.9 0-3.4-1.5-3.4-3.4V33c0-1.9 1.5-3.4 3.4-3.4h11.4c2.3.1 2.4.8 2.9 2.6.1.4.2.7.3 1.1.2.6.6 1 1.1 1.2.2.1.5.2.8.2.3 0 .6-.1.9-.2.9-.5 1.8-1.6 4.9-5.9.6-.9 1.3-1.8 2-2.7.7-.9 1.5-1.7 2.3-2.5 2.2-2.1 4.6-4.5 4.3-9.5V5.7c0-1 .4-1.9 1.1-2.6.8-.7 1.8-1.1 2.8-1.1m0-2c-1.5 0-3 .6-4.1 1.7-1.1 1.1-1.7 2.5-1.7 4v8.2c.4 5.8-3.6 7.1-6.3 10.8-2.7 3.7-5.4 7.6-6.2 8-.7-2.2-.7-4.8-5.1-5.1H5.4C2.4 27.6 0 30 0 33v33.7c0 3 2.4 5.4 5.4 5.4h11.7c3 0 5.4-2.4 5.4-5.4v-.8c2.6 2.3 6 3.7 9.7 3.7h25.4c2.3 0 4.6-1 6.2-2.6 1.6-1.6 2.4-3.7 2.3-5.9 0-.8-.1-1.5-.4-2.3 2.7-1.4 4.5-4.2 4.5-7.4 0-1.1-.2-2.2-.6-3.2 1.8-1.7 2.9-4 2.9-6.4 0-2.4-1.1-4.7-2.8-6.2 1.2-1.6 1.7-3.6 1.5-5.6-.4-4.2-4.2-7.6-8.6-7.6l-16.5.1s1.7-6.4 1.5-12C47.4 4.9 44.1 0 40.2 0z"/>
</svg>
