<svg xmlns="http://www.w3.org/2000/svg" viewBox="0 0 185.67 28.35">
  <path fill="#eb008b" d="M0 0l8.4 14.17L0 28.35h185.67V0H0z"/>
  <path fill="#fff" d="M106 19.18a2.59 2.59 0 0 0 2.79-2.68c-2 0-4.45.41-4.45 1.62 0 .69.59 1.06 1.66 1.06m2.79.23h-.06c-.42.58-1.35 1.24-3.49 1.24s-3.94-.9-3.94-2.35c0-3 5.63-3 7.49-3v-.9c0-.88-.34-1.63-1.89-1.63-1.71 0-2.05.76-2.05 1.37h-3c0-1.71 1.69-2.84 5.09-2.84s4.87 1 4.87 2.78v6.36h-3zm-13.6-.23c2 0 2.34-1.74 2.34-3.2 0-1.62-.25-3.35-2.34-3.35-1.88 0-2.47 1.84-2.47 3.35 0 2.23.5 3.2 2.47 3.2m-2.47-6.6a4.45 4.45 0 0 1 3.48-1.28c3.21 0 4.62 1.82 4.62 4.68 0 2.49-1.29 4.67-5.66 4.67-3.52 0-5.6-1.33-5.6-4V7.49h3.13zm-7.86 6.19a4.35 4.35 0 0 1-4 1.88c-2 0-3.63-.9-3.63-2.95v-6.19h3.07v5.1c0 1.82.28 2.09 1.38 2.09a3.26 3.26 0 0 0 3.15-3.33v-3.86H88v8.93h-3.17zm-20.29-7.26h3.13v1.67a4.32 4.32 0 0 1 4-1.88c2 0 3.63.91 3.63 2.95v6.19h-3.1v-5.1c0-1.82-.28-2.09-1.38-2.09a3.26 3.26 0 0 0-3.15 3.33v3.86h-3.13zM57 19.18a2.6 2.6 0 0 0 2.79-2.68c-2 0-4.45.41-4.45 1.62 0 .69.59 1.06 1.66 1.06m2.79.23h-.06c-.42.58-1.35 1.24-3.49 1.24s-3.94-.9-3.94-2.35c0-3 5.63-3 7.49-3v-.9c0-.88-.35-1.63-1.89-1.63-1.72 0-2.06.76-2.06 1.37h-3c0-1.71 1.69-2.84 5.1-2.84s4.87 1 4.87 2.78v6.36h-3zM41.38 7.49h3.12v7.43l4.33-3.41h3.75l-5 3.86L53 20.44h-3.72l-4.72-4.5h-.06v4.5h-3.12zm-5 11.28h-.05a4.35 4.35 0 0 1-4 1.88c-2 0-3.63-.9-3.63-2.95v-6.19h3.2v5.1c0 1.82.28 2.09 1.37 2.09a3.27 3.27 0 0 0 3.15-3.33v-3.86h3.13v8.93h-3.13zM16.3 7.49h11.35v1.67h-8v3.74h7.63v1.67H19.6v4.2h8.27v1.67H16.3zM113.42 11.85h-.58v-.3h1.48v.3h-.58v1.54h-.32v-1.54zM114.79 11.55h.34l.55.87.56-.87h.34v1.84h-.32v-1.32l-.58.87h-.01l-.57-.86v1.31h-.31v-1.84z"/>
</svg>
