<svg xmlns="http://www.w3.org/2000/svg" viewBox="0 0 869.35 142.39">
  <defs/>
  <path fill="#c4007a" fill-rule="evenodd" d="M727.23 102.15h142.12V106H727.23z"/>
  <path fill="#172447" fill-rule="evenodd" d="M0 27.88h135.35v3.91H0z"/>
  <path fill="#172447" d="M151.13 0l1.51 34.88-34.87 34.88 546.39.03 35.59-35.59L664.16 0H151.13z"/>
  <path fill="#c40079" d="M182.78 106.8l16.98 35.59 517.27-.02-5.06-34.88 27.91-34.88H229.75l-.15.35-.07-.36-46.75 34.2z"/>
  <path fill="#fff" d="M222.64 30.68h-5.38l-3.82 6.74h4.06l-4.19 10h-5.58l-6.83 12h-11.57l6.9-12H190l-6.91 12h-11.5l6.84-12h-3.86l4.19-10h5.37l3.83-6.74h-4.07l4.19-10h5.58l6.18-10.88h11.5l-6.18 10.88h6.27l6.18-10.88h11.57l-6.28 10.89h3.86zm-23.21 0l-3.83 6.74h6.27l3.82-6.74zM263.97 59.39h-11.43l10.13-24.17-11.41 12.12h-7.3l-1.81-12.12-10.2 24.17h-11.43l20.62-49.02h10.67l1.52 21.61 20.04-21.61h11.23l-20.63 49.02zM319.83 34.88c-3.61 8.6-6.15 14.52-11.59 19.21a23.33 23.33 0 0 1-15.37 5.71c-10.26 0-13.9-6.95-12.28-14.32a65.49 65.49 0 0 1 3.64-10.6c3.61-8.61 6.15-14.53 11.59-19.21A23.28 23.28 0 0 1 311.19 10c10.26 0 13.9 7 12.28 14.32a66.2 66.2 0 0 1-3.64 10.61M308.09 20a8 8 0 0 0-5.39 2.28c-1.8 1.58-3.5 4.33-7 12.6a70.08 70.08 0 0 0-3.43 9.64c-.74 3.37.92 5.23 3.67 5.23a8 8 0 0 0 5.39-2.27c1.79-1.59 3.5-4.34 7-12.6a70.55 70.55 0 0 0 3.43-9.64c.74-3.38-.92-5.24-3.67-5.24M352 59.39h-11.39l7.64-18.18h-4.4l-15.57 18.18h-12.67l18.3-21.21c-2.31-2.34-3.18-5.92-2.15-10.6a22.69 22.69 0 0 1 22.38-17.21h18.52zm-.61-38.9a8.25 8.25 0 0 0-7.94 6.06c-.56 2.54.1 4.54 3.06 4.54h5.92l4.47-10.6zM416.48 25.58c.55-2.82.2-5.58-3.52-5.58a7.78 7.78 0 0 0-5.43 2.14c-1.93 1.58-3.67 4.47-7.14 12.74a70.08 70.08 0 0 0-3.39 9.64c-.74 3.37.78 5.23 3.81 5.23 3.65 0 6.39-2.76 8.11-5.58h11.78c-5.94 10.74-14.25 15.63-23 15.63-10.33 0-14-6.95-12.42-14.32a67.57 67.57 0 0 1 3.64-10.6c3.61-8.61 6.16-14.53 11.59-19.21A23.51 23.51 0 0 1 416 10c10.47 0 13.82 7 11.92 15.63zM466.7 34.88c-3.61 8.6-6.15 14.52-11.59 19.21a23.31 23.31 0 0 1-15.37 5.71c-10.26 0-13.9-6.95-12.28-14.32a66.52 66.52 0 0 1 3.64-10.6c3.61-8.61 6.15-14.53 11.59-19.21A23.29 23.29 0 0 1 458.06 10c10.26 0 13.9 7 12.28 14.32a66.2 66.2 0 0 1-3.64 10.61M455 20a8 8 0 0 0-5.39 2.28c-1.79 1.58-3.5 4.33-7 12.6a70.08 70.08 0 0 0-3.43 9.64c-.74 3.37.92 5.23 3.67 5.23a8 8 0 0 0 5.39-2.27c1.8-1.59 3.5-4.34 7-12.6a70.55 70.55 0 0 0 3.43-9.64c.74-3.38-.92-5.24-3.67-5.24M514.36 20.42h-20.18l-3.43 8.12h6.4c7.92 0 12.45 5.1 10.57 13.63a22.7 22.7 0 0 1-22.38 17.22h-19l20.62-49h31.61zm-21.43 18.24h-6.41l-4.46 10.61h6a8.25 8.25 0 0 0 7.94-6.06c.56-2.55-.1-4.55-3.06-4.55M536.09 59.39l1-7.71h-14.52l-5.48 7.71H504.9l37.49-49h8.89l-3.55 49zm3.82-31.47L529.3 42.38h9zM565.91 59.39h-11.44l20.63-49h11.43zm22.78-26l4.21 26h-13.43l-2.67-25.75 22.05-23.28h13.37zM627.26 59.39l1-7.71h-14.53l-5.48 7.71h-12.19l37.5-49h8.88l-3.54 49zm3.82-31.47l-10.62 14.46h8.95zM279.86 134.76h-11.43l10.13-24.17-11.41 12.12h-7.3l-1.81-12.12-10.2 24.17H236.4l20.62-49.03h10.68l1.51 21.63 20.04-21.63h11.23l-20.62 49.03zM335.72 110.25c-3.62 8.6-6.16 14.53-11.6 19.21a23.26 23.26 0 0 1-15.37 5.71c-10.26 0-13.9-6.95-12.28-14.32a67.57 67.57 0 0 1 3.64-10.6c3.61-8.61 6.16-14.53 11.59-19.21a23.3 23.3 0 0 1 15.38-5.72c10.26 0 13.89 7 12.27 14.32a65.89 65.89 0 0 1-3.63 10.61M324 95.37a8 8 0 0 0-5.39 2.28c-1.79 1.58-3.5 4.33-7 12.6a70 70 0 0 0-3.42 9.64c-.75 3.37.91 5.23 3.67 5.23a8 8 0 0 0 5.39-2.27c1.79-1.59 3.5-4.34 7-12.6a70.55 70.55 0 0 0 3.43-9.64c.74-3.38-.91-5.24-3.67-5.24M371.78 134.76h-11.43l10.5-24.58-26 24.58h-9.5l20.62-49h11.43l-10.3 24.65 25.8-24.65h9.5zm3.71-51.37c-7.23 0-9.34-3.85-8.49-7.71a14.11 14.11 0 0 1 .72-2.34h7.64a7.6 7.6 0 0 0-.28 1c-.41 1.86.86 2.68 2.44 2.68 1.86 0 3.5-.89 4.73-3.65h7.92c-3.17 8.13-8.76 10-14.68 10M447.81 95.86h-11.23l-16.33 38.9h-11.43l16.33-38.9h-11.7l4.29-10.13h34.36l-4.29 10.13zM467 116.58h-7.58l-7.64 18.18h-11.42l20.62-49h17.83c7.92 0 12.45 5.09 10.58 13.63A22.7 22.7 0 0 1 467 116.58m7.58-20.72h-6.4l-4.47 10.6h6a8.27 8.27 0 0 0 8-6.06c.56-2.55-.11-4.54-3.07-4.54M531.49 95.79h-20.18l-3.89 9.23h17.42l-4.2 10.05h-17.43l-4.04 9.63h20.59l-4.21 10.06h-32.09l20.62-49.03h31.61l-4.2 10.06zM560.58 134.76h-11.43l8.34-19.76H545.3l-8.34 19.76h-11.43l20.62-49.03h11.44l-8 19.15h12.19l8-19.15h11.43l-20.63 49.03zM620.17 95.79h-20.18l-3.88 9.23h17.42l-4.21 10.05H591.9l-4.05 9.63h20.59l-4.2 10.06h-32.1l20.63-49.03h31.61l-4.21 10.06zM640.87 116.58h-7.58l-7.64 18.18h-11.43l20.62-49h17.84c7.92 0 12.44 5.09 10.57 13.63a22.7 22.7 0 0 1-22.38 17.21m7.58-20.72h-6.4l-4.47 10.6h6a8.26 8.26 0 0 0 7.95-6.06c.56-2.55-.11-4.54-3.07-4.54" class="cls-5"/>
</svg>
