<?xml version="1.0" encoding="utf-8"?>
<!-- Generator: Adobe Illustrator 22.1.0, SVG Export Plug-In . SVG Version: 6.00 Build 0)  -->
<svg version="1.1" id="Layer_1" xmlns="http://www.w3.org/2000/svg" xmlns:xlink="http://www.w3.org/1999/xlink" x="0px" y="0px"
	 viewBox="0 0 100 100" style="enable-background:new 0 0 100 100;" xml:space="preserve">
<style type="text/css">
	.st0{fill:none;stroke:#EB008B;stroke-width:3;stroke-miterlimit:10;}
	.st1{fill:#EB008B;}
	.st2{fill:none;stroke:#EB008B;stroke-width:2;stroke-miterlimit:10;}
	.st3{fill:none;stroke:#000000;stroke-width:3;stroke-miterlimit:10;}
	.st4{fill:none;stroke:#EB008B;stroke-width:3;stroke-linecap:round;stroke-linejoin:round;stroke-miterlimit:10;}
	.st5{fill:none;stroke:#EB008B;stroke-width:3;stroke-linecap:round;stroke-miterlimit:10;}
	.st6{fill:none;stroke:#EB008B;stroke-width:5;stroke-miterlimit:10;}
</style>
<path class="st2" d="M71.3,75.9c0.2-1.9,0.5-2.5,0.6-3.7c-0.2-0.8-1.2-5.6-2-7c-1.2-2.8,0-6.5-0.3-10.3c-3.8-1.4-4.3-0.2-4.1-4.2
	c1.4-0.2,2.5-0.9,4.3-1.1c0.5-1.4,0.3-2,3.2-1.8c0.4-1,0-1.9,0.2-2.1c0.2-0.3,1.7,1.3,1.8,1.6c0.3,0.8,0,0.9,0.7,2.6
	c1.2,2.5,0.6,4.3,2.4,8.5c2.4,5.7,6.1,2.6,8.5,16.8c0.6-0.1,4.6-0.2,4.4-2.7c-0.2-1.8-3.2-4-0.8-4.4c1.7-0.2,5.8,4.4,2.9,7.3
	c-2.3,2.2-3.6,2.4-6.9,2.6c-1.5,0-10.6,0-10.6,0s-0.3-0.9-0.1-1.3c0.2-0.2,1.9-0.5,2.8-0.7c-0.6-0.6-0.8-1.9-0.2-2.9
	c0.4-0.7,0-1.6-0.8-1.7c-0.9-0.2-1.4-0.6-2-1.2c-0.9-1-1.2,0.2-1.1,0.8c0.1,0.8,0,1.2,0,2.2c-0.3,2-1.1,3.4-1.4,4.8h-3.4
	C68.8,76.8,70.8,75.9,71.3,75.9z"/>
<path class="st4" d="M49.5,42.9c-0.6-1.3-1.4-1.9-2.8-2.3l-13.4-3.7c-0.5-0.9-1.2-1.7-2-2.4c0,0,4.2-3.7,4.2-6.8
	c0-3.9-3.2-7.1-7.1-7.1c-3.9,0-7.1,3.2-7.1,7.1c0,1.6,1,4.1,1,4.1c-3.4,0.5-3.6,3.1-5.2,6.1l-4,7.7c-1.9,3.5-4.2,9.8-2,13.1
	L7.8,74.6c-0.3,1.5,0.1,4.9,2.7,5.3c4.3,0.7,5-1.3,6.2-4.2l3.4-15.5c0,0,1.4-1,1.4-1l6.1,5.2l2.4,9.5c0.6,2.5,2.8,4.2,5.4,4.2
	c0.5,0,0.9-0.1,1.4-0.2c1.2-0.3,1.6-0.6,2.3-1.6c0.8-1.2,0.7-3,0.4-4.4l-3-11.6c-0.3-1.3-1.1-2.5-2.2-3.2L27,51.8l3.5-8.8
	c1,0.7,1.3,0.9,1.7,0.9c0,0,12.5,3.4,13,3.4C49.8,47.7,49.8,43.6,49.5,42.9z"/>
<line class="st2" x1="49.1" y1="45.6" x2="65.5" y2="51.6"/>
<line class="st2" x1="43.7" y1="47" x2="43.7" y2="55.9"/>
<line class="st2" x1="67.1" y1="54.4" x2="67.3" y2="60"/>
</svg>
