<?xml version="1.0" encoding="utf-8"?>
<!-- Generator: Adobe Illustrator 22.1.0, SVG Export Plug-In . SVG Version: 6.00 Build 0)  -->
<svg version="1.1" id="Layer_1" xmlns="http://www.w3.org/2000/svg" xmlns:xlink="http://www.w3.org/1999/xlink" x="0px" y="0px"
	 viewBox="0 0 100 100" style="enable-background:new 0 0 100 100;" xml:space="preserve">
<style type="text/css">
	.st0{fill:none;stroke:#EB008B;stroke-width:3;stroke-miterlimit:10;}
	.st1{fill:#EB008B;}
	.st2{fill:none;stroke:#EB008B;stroke-width:2;stroke-miterlimit:10;}
	.st3{fill:none;stroke:#000000;stroke-width:3;stroke-miterlimit:10;}
	.st4{fill:none;stroke:#EB008B;stroke-width:3;stroke-linecap:round;stroke-linejoin:round;stroke-miterlimit:10;}
	.st5{fill:none;stroke:#EB008B;stroke-width:3;stroke-linecap:round;stroke-miterlimit:10;}
	.st6{fill:none;stroke:#EB008B;stroke-width:5;stroke-miterlimit:10;}
</style>
<g>
	<g>
		<path class="st0" d="M95.1,72.2c-0.3-0.2-3.1-0.4-3.4-0.5c-1.5-0.1-9.2-5.4-10.6-6.5c-2.8-2.2-8.3-5.8-8.2-5.8
			c0.1-0.1,7.6-0.4,7.9-0.2c0.4,0.2,5.3,5.3,6.7,4.1c2-1.7-4.2-7.6-4.3-7.8c-0.2-0.2-0.5-0.4-0.8-0.5c-0.3-0.1-5.2,0.2-6.6,0.1
			c-1.4-0.1,2.6-4.9,1.4-12.5c-0.6-4-4.8-7.4-5-8.7c-0.2-1.1,3.1-5.3,2.5-6.3c-1-1.6-3.7,1.2-4.2,1c-0.3-0.1-0.7-0.2-1.1-0.4
			c-0.6-0.4-1.2-0.8-1.9-1.1c-1.9-0.9-3.7-1.1-5.3-0.6c-1.6,0.5-2.8,1.5-3.5,3.2l-4.8,1.2c-0.3,0.1-0.6,0.2-0.8,0.5
			c-0.2,0.3-0.3,0.5-0.3,0.8c0.1,2.4,1.2,3.8,3.2,4.4c2,0.6,3.5,1.2,4.6,3c1.4,2.1-2.7,4.4-14.6,4.8c-10.5,0.7-14.1-0.8-14.1-0.8
			s-11.1-5.9-17.2-4.5c-3.2,0.8-7.6,2.6-10,7c10-4.5,25,0.2,25.1,1.2c0,0-0.9,2.9-1,3.3c-0.3,1.4-0.4,2.5-0.4,3.3c0,0.6,0,3,0,4.1
			c0.1,1-4.6-0.1-5.2,0.8c-0.3,0.5,0.4,3.8-0.5,3.7c-0.7,0-2.9-0.4-4,1.7s-2.6,8.8-2.6,8.8s-1.1,2.7,1.1,3.3c2.4,0.6,3-2.5,3-2.5
			c0.4-1.2,0.8-7.7,3.5-6.9c0.5,1.2,1.5,3.7,2,5.1c1.6,4.8,6.1,4.3,4.5-0.3c-1-2.7-2.5-6.7-1.9-6.7c1.3,0.1,6.6,1.5,9.2,0.1
			c1.9-0.9,3.4-5.3,5.3-6.5c1.9-1.2,4.6-0.7,7.1,0.6c2.2,1.2,3.2,2.7,7.4,3.5c4.2,0.9,8-1.3,10-1c2,0.3,9.1,5.8,9.1,5.8
			s10,6.4,11.1,7c3.5,2.5,7,0.7,7.5,0.3c0.5-0.4,0.8-0.8,0.8-1.4C95.6,72.9,95.5,72.4,95.1,72.2z"/>
	</g>
</g>
</svg>
