<?xml version="1.0" encoding="utf-8"?>
<!-- Generator: Adobe Illustrator 22.1.0, SVG Export Plug-In . SVG Version: 6.00 Build 0)  -->
<svg version="1.1" id="Layer_1" xmlns="http://www.w3.org/2000/svg" xmlns:xlink="http://www.w3.org/1999/xlink" x="0px" y="0px"
	 viewBox="0 0 100 100" style="enable-background:new 0 0 100 100;" xml:space="preserve">
<style type="text/css">
	.st0{fill:none;stroke:#EB008B;stroke-width:3;stroke-miterlimit:10;}
	.st1{fill:#EB008B;}
	.st2{fill:none;stroke:#EB008B;stroke-width:2;stroke-miterlimit:10;}
	.st3{fill:none;stroke:#000000;stroke-width:3;stroke-miterlimit:10;}
	.st4{fill:none;stroke:#EB008B;stroke-width:3;stroke-linecap:round;stroke-linejoin:round;stroke-miterlimit:10;}
	.st5{fill:none;stroke:#EB008B;stroke-width:3;stroke-linecap:round;stroke-miterlimit:10;}
	.st6{fill:none;stroke:#EB008B;stroke-width:5;stroke-miterlimit:10;}
</style>
<circle class="st0" cx="69.2" cy="12.9" r="7.9"/>
<path class="st0" d="M85.1,44.4l-8.6-3.6v5.7l7.2,2.3c1.3,0.5,2.2,0.4,2.8-1.1C87,46.2,86.4,44.9,85.1,44.4z"/>
<path class="st0" d="M84.4,68.9l-7.9-17c-0.2-0.6-0.3-3.7-0.3-3.7l0.4-17.9c0-4.6-3.2-7.4-7.2-7.4c-3.8,0-8.1-1.3-9.3,6.1l-1.9,9.3
	c-0.1,0.2-4.4,14-4.4,14c-0.4,1.2-0.4,2.1,0.8,2.7l1.1,0.2c1.1,0.1,2.1-0.5,2.5-1.6l3.9-9.9L62,58.6l-1.6,13.5
	c0,0-6.1,14.4-7.9,18.6c-0.4,1,0.1,3.7,2,3.7c2.6,0,3.3-1.5,3.8-2.3c2.5-3.7,7.7-13.3,9.3-15.6c0.2-0.3,0.3-0.6,0.4-0.9l3.2-12.7
	l6.5,11.2c0,0,0.2,13.1,0.2,17.5c0,1,0.8,3.3,2.7,3.4c1.9,0.1,3.3-2.4,3.4-3.4c0.2-4.9,1-19.5,1-19.5C84.9,71.7,84.8,69.4,84.4,68.9
	z"/>
<path class="st4" d="M39.7,79.9c-0.4,2.4-2,11.1-2,11.1s1.7,0.1,2.5,0.8c0.2,0.2,0.4,0.6,0.4,1C40.9,94,40,95,38.9,95H36
	c-1.5,0-2.8-1.3-2.7-2.9l0.2-5.8l-0.6-5.4c-3.5,0-7.6,0-10.5-0.2c-1.6-0.1-3.2-0.1-4.8-0.1l-0.1,2.9c0,1.6-0.4,3.1-1,4.5l-1.3,3
	l1.2,0.1c0.8,0.1,1.4,0.7,1.5,1.5l0.1,0.5c0.1,1-0.6,1.8-1.6,1.8h-3.4c-1,0-1.8-1.2-1.9-2.6c-0.1-1.5,0.1-6-0.2-7.7
	c-0.3-1.7-2.5-6-2.3-9.1c0.1-3,0.7-4.9,0.7-4.9l-2.7-2.4c-0.3-0.3-0.4-0.6-0.4-1c0-0.3,0.1-0.6,0.3-0.8c0.4-0.6,1.3-0.7,1.8-0.3
	l3.1,2.3c0,0,13.8-0.7,15.9-0.9c4.2-0.5,7.7-10.7,8.5-13.1c0.3-0.7,1.2-0.9,1.7-0.3l1.6,1.9c0.4,0.5,0.9,0.8,1.5,1.1l7.3,3.4
	c0.7,0.3,1,1,1.1,1.7l-0.4,2.4c-0.1,0.8-0.9,1.4-1.7,1.3l-6.3-0.7C40.4,65.3,40.2,77.6,39.7,79.9z"/>
<line class="st4" x1="31.7" y1="64.5" x2="40.2" y2="70.8"/>
<line class="st4" x1="54.1" y1="53.8" x2="42.5" y2="58.1"/>
</svg>
