<svg xmlns="http://www.w3.org/2000/svg" viewBox="0 0 89.5 48">
  <path fill="none" stroke="#EB008B" stroke-width="2" stroke-miterlimit="10" d="M88.4 43.9c-.3-.2-.8-.3-1.5-.4-.8-.1-1.3-.2-1.6-.3-.6-.1-1-.2-1.2-.4-.5-.4-1.3-.9-2.3-1.7-1.1-.8-1.8-1.4-2.1-1.6-1.4-.9-2.8-1.9-4.1-2.9-2.6-2-3.9-3.5-3.9-4.5 0-.3 0-.5.1-.5 0-.1.2-.1.4-.1.3 0 .7 0 1.2.1.6.1 1 .2 1.2.3.4.2.6.4.8.8 0 0 .1.2.2.5.1.2.2.4.3.5.2.4.8.9 1.8 1.7 1 .8 1.6 1.2 1.9 1.2.4 0 .7-.2.9-.5.2-.3.2-.5.2-.9 0-.6-.4-1.3-1.1-2.2-.4-.5-.7-.9-1-1.1-.4-.4-.6-.8-.8-1.1-.4-.8-.7-1.3-.9-1.6-.2-.4-.5-.8-.6-1-.2-.2-.5-.4-.8-.5-.3-.1-.7-.1-1.3-.1-.2 0-.6 0-1.1.1-.5.1-.8.1-1.1.1-1 0-1.6-.1-2-.4l-.3-.3.3-.3c.5-.4 1-1 1.5-1.5l.2.5c.2.3.4.5.6.5.1 0 .3-.5.5-1.6.1-.5.2-.9.3-1.2 1.2-4.9 0-9.6-3.5-14.1 0-.1-.1-.1-.1-.2.2-.1.4-.2.7-.3 1.3-.3 1.8-.7 1.8-1.2s-.9-1.2-2.7-2.2l.3-.3c.1-.3.1-.6.1-.7 0-.2-.1-.4-.4-.5-.4-.3-1.8-.7-4-1.3-.3-.1-.7-.2-1.1-.4-.6-.4-1.2-.7-1.8-1-1.8-.8-3.5-1-5-.5-1.5.4-2.6 1.5-3.3 3l-4.5 1.1c-.3.1-.5.2-.7.5-.2.2-.3.5-.3.8.1 2.2 1.1 3.6 3 4.2 1.9.6 3.3 1.6 4.3 3.3 1 1.6-3.1 2.8-12.2 3.4-.5.1-1 .1-1.6.2-1.4 0-3.9-.2-7.4-.5-3.3-.3-5.7-.5-7.2-.7-1.3-.2-2.7-.4-4.1-.8-1.2-.3-2.5-.7-4-1.2-1.1-.4-2.3-.7-3.5-1.1-3.3-.8-6.4-.9-9.3-.2-3 .7-4.9 2-5.8 3.9h.1c1.7-.9 3.3-.8 4.6.1.3.2.8.4 1.5.7.8.4 1.6.6 2.3.8 1 .2 2 .4 3.2.4.2 0 .5 0 1.1-.1.4 0 .6-.1.7-.1-.3 0-.7.2-1.3.5-.7.4-1 .6-1.1.6h.1c.5.1 1 .1 1.5.2 1 .1 1.6.2 1.9.2.4 0 .9 0 1.4-.1.4-.1.7-.1 1.1-.2l-.7.7c-.3.4-.6.6-.7.6h.9c.8 0 1.6-.1 2.3-.3.8-.2 1.6-.6 2.4-1v-.1h.1s-.1 0-.1.1c-.1.1-.2.3-.4.6-.3.4-.4.7-.4.8v.1c.3-.1.8-.3 1.4-.5.6-.2 1-.3 1.2-.3 1.6 0 2.5.5 2.6 1.5h.1c-.1.6-.2 1.1-.3 1.4-.3 1.3-.4 2.4-.4 3.1 0 .6 0 1.3.1 2.3.1 1 .1 1.6.1 1.8 0 .4-.1.8-.2 1.3v.1c-.6-.3-1.1-.6-1.7-1-1.5-.8-2.5-.8-3.1.1-.3.5-.5 1.1-.5 1.9 0 .5.1 1 .1 1.6h-.5c-.6 0-1.1.1-1.5.3-.3.2-.6.5-.9.9-.2.3-.4.8-.5 1.4-.1.4-.3 1-.6 1.8 0 .1-.2.5-.5 1.2-.6 1.2-.9 1.9-1 2-.9 1.9-1.4 3-1.4 3.4 0 .6.1 1.1.3 1.4.2.4.6.6 1 .6.9 0 1.8-.8 2.5-2.5.2-.5.5-1.2.7-1.9.2-.7.4-1.2.4-1.4.3-.9.5-1.6.8-2.1.3-.5.6-.9 1-1.2l.6-.3c0 .2.1.4.1.6.8 3.8 1.9 5.7 3.3 5.7.6 0 .9-.3 1-.8.1-.2.1-.4.1-.6v-.5c0-.4-.2-1.4-.7-2.9-.2-.8-.4-1.4-.5-1.9.4 0 .8.1 1.4.1 1.3.1 2.2.2 2.9.2 2.3 0 4.1-.4 5.4-1.2 1-.6 1.8-1.4 2.5-2.6.1-.1.3-.6.7-1.4.3-.5.5-.9.7-1.2.3-.4.6-.7 1-.9.4-.2.9-.3 1.5-.3 1.2 0 2.6.2 4.3.7.4.1 1 .3 1.6.5.4.1.7.2.7.2h.3v.1c-.4.3-.7.5-.8.5-.3.2-.7.4-1 .5.2 0 .9.1 2.1.3 1.3.2 2.5.3 3.5.3.9 0 1.6-.1 2.2-.3.2-.1.5-.2.7-.3l.8-.4c-.3.4-.6.8-1 1.3s-.7.8-.9 1h.2c.2 0 .6-.1 1.2-.2.7-.1 1.5-.3 2.2-.5 1.8-.5 3-.9 3.6-1.4.1-.1.1-.1.1-.2v.3c0 .2-.2.5-.4 1.1-.2.5-.3.8-.3.9.9-.4 1.7-.8 2.3-1.1.7-.4 1.3-.8 1.7-1.2l.2.2c.6.7 1.2 1.4 1.8 2 .4 1 .3 2.1-.2 3.2 2.1-.5 4.1-.3 6 .8 1.2.6 3 1.7 5.4 3.2 2.4 1.5 4.1 2.6 5.2 3.1 1.8.9 3.2 1.4 4.3 1.4.7 0 1.3-.2 1.7-.5.5-.3.8-.8.8-1.3.2-.2 0-.5-.4-.7zM57.1 5.6c0 .1 0 .2-.1.3-.1.1-.2.1-.4.1-.1 0-.2 0-.3-.1-.1-.1-.1-.2-.1-.3v-.2l.1-.1c.1-.1.2-.1.3-.1.1 0 .2 0 .3.1.1.1.2.2.2.3z"/>
</svg>
