<?xml version="1.0" encoding="utf-8"?>
<!-- Generator: Adobe Illustrator 22.1.0, SVG Export Plug-In . SVG Version: 6.00 Build 0)  -->
<svg version="1.1" id="Layer_1" xmlns="http://www.w3.org/2000/svg" xmlns:xlink="http://www.w3.org/1999/xlink" x="0px" y="0px"
	 viewBox="0 0 100 100" style="enable-background:new 0 0 100 100;" xml:space="preserve">
<style type="text/css">
	.st0{fill:none;stroke:#EB008B;stroke-width:3;stroke-miterlimit:10;}
	.st1{fill:#EB008B;}
	.st2{fill:none;stroke:#EB008B;stroke-width:2;stroke-miterlimit:10;}
	.st3{fill:none;stroke:#000000;stroke-width:3;stroke-miterlimit:10;}
	.st4{fill:none;stroke:#EB008B;stroke-width:3;stroke-linecap:round;stroke-linejoin:round;stroke-miterlimit:10;}
	.st5{fill:none;stroke:#EB008B;stroke-width:3;stroke-linecap:round;stroke-miterlimit:10;}
	.st6{fill:none;stroke:#EB008B;stroke-width:5;stroke-miterlimit:10;}
</style>
<g>
	<path class="st1" d="M79.3,50.7c-1.1,0-2,0.9-2,2c0,7-5.7,12.6-12.6,12.6c-1.6,0-3.1-0.3-4.5-0.9c-0.3-0.1-0.6-0.2-0.9-0.4
		c-3.6-1.7-6.2-5-7-8.9c-0.1-0.6-0.2-1.2-0.2-1.9c0-0.1,0-0.3-0.1-0.4c0-0.1,0-0.1,0-0.2v-7.1h0.4c0,0,3-2.6,5.7-5
		c3-2.8,2.8-7.1-0.9-9.4c-0.9-0.6-2-1-3.1-1l-4.1,1l-4.1-1c-1.1,0-2.1,0.4-3.1,1c-3.6,2.3-3.9,6.7-0.9,9.4c2.6,2.4,5.7,5,5.7,5H48
		v7.1c0,0.1,0,0.1,0,0.2c0,0.1-0.1,0.3-0.1,0.4c-0.2,5-3.4,9.4-8.1,11.2c-0.4,0.1-0.7,0.3-1.1,0.4h-0.2v0c-1,0.3-2.1,0.4-3.2,0.4
		c-7,0-12.6-5.7-12.6-12.6c0-1.1-0.9-2-2-2s-2,0.9-2,2c0,9.2,7.5,16.6,16.6,16.6c1.1,0,2.2-0.1,3.2-0.3c0,0,2.2-0.5,4-1.3
		c1.8-0.8,4-2.5,5.4-4.2c0,0,1.4-1.6,2-2.1c0.6,0.3,2,2,2,2c1.5,1.8,3.3,3.2,5.4,4.2c0,0,2,1,4,1.4s2.1,0.3,3.2,0.3
		c9.2,0,16.6-7.5,16.6-16.6C81.3,51.6,80.4,50.7,79.3,50.7z"/>
	<circle class="st1" cx="59.2" cy="53.7" r="2.4"/>
	<circle class="st1" cx="70.1" cy="53.7" r="2.4"/>
	<circle class="st1" cx="64.7" cy="60.1" r="2.4"/>
	<circle class="st1" cx="29.7" cy="53.7" r="2.4"/>
	<circle class="st1" cx="40.6" cy="53.7" r="2.4"/>
	<circle class="st1" cx="35.1" cy="60.1" r="2.4"/>
</g>
</svg>
