<?xml version="1.0" encoding="utf-8"?>
<!-- Generator: Adobe Illustrator 22.1.0, SVG Export Plug-In . SVG Version: 6.00 Build 0)  -->
<svg version="1.1" id="Layer_1" xmlns="http://www.w3.org/2000/svg" xmlns:xlink="http://www.w3.org/1999/xlink" x="0px" y="0px"
	 viewBox="0 0 100 100" style="enable-background:new 0 0 100 100;" xml:space="preserve">
<style type="text/css">
	.st0{fill:none;stroke:#EB008B;stroke-width:3;stroke-miterlimit:10;}
	.st1{fill:#EB008B;}
	.st2{fill:none;stroke:#EB008B;stroke-width:2;stroke-miterlimit:10;}
	.st3{fill:none;stroke:#000000;stroke-width:3;stroke-miterlimit:10;}
	.st4{fill:none;stroke:#EB008B;stroke-width:3;stroke-linecap:round;stroke-linejoin:round;stroke-miterlimit:10;}
	.st5{fill:none;stroke:#EB008B;stroke-width:3;stroke-linecap:round;stroke-miterlimit:10;}
	.st6{fill:none;stroke:#EB008B;stroke-width:5;stroke-miterlimit:10;}
</style>
<g>
	<path class="st0" d="M78.9,53.3c-2-2-4.7-3.1-7.5-3.1l0,0c-2.5,0-4.9,0.9-6.8,2.5L48.7,36.7c3.7-4.6,2.9-11.2-1.7-14.9
		s-10.9-3.3-14.5,1.3c-1.1,1.4-1.5,4-1.8,5.8c-5.8,1-10.4,5.9-9.4,11.6s6.5,9.6,12.2,8.6c1.8-0.3,3.4-1,4.8-2.2l15.8,15.8
		c-3.7,4.6-2.9,11.2,1.7,14.9c4.6,3.7,10.8,3.4,14.4-1.2c1.1-1.4,1.5-4.3,1.8-6.1c5.8-0.8,10.5-5.5,9.7-11.2
		C81.6,57,80.5,54.9,78.9,53.3z"/>
</g>
</svg>
