<svg xmlns="http://www.w3.org/2000/svg" viewBox="0 0 45 45">
  <path fill="none" d="M-27.5863-27.58572H72.41382V72.4144H-27.5863z"/>
  <path fill="#EB008B" d="M26.84854584 4.3579742c1.030019-1.7300319 2.66504915-3.09505708 4.57008428-3.79507 1.01001862-.3700068 2.08503845-.55501022 3.16505836-.5650104h.08500157c4.08507533.01500028 8.05514855 2.70504988 9.61017722 6.6751231 1.0250189 2.62004831.91501688 5.69510502-.4450082 8.1451502-.75501393 1.35502499-1.88003467 2.49004592-3.2150593 3.28506058.23000425.82501522.3950073 1.6700308.49000904 2.53004666.24500452 2.25504158-.04000073 4.60008483-1.05001936 6.62012208-1.030019 2.06003799-2.83005219 3.70506833-4.98509193 4.59008465.03000055.32500599.05000092.65501208.0650012.98501816.09000166 2.440045-.3850071 4.95009129-1.6650307 7.0551301-1.36002509 2.24004131-3.63006695 3.88507165-6.17011379 4.60008484-3.3350615.93501724-6.96512844.4500083-10.25018902-.76001402-4.4950829-1.66003061-8.45015583-4.6800863-11.47521162-8.36015417-3.0100555-3.66506759-5.2000959-8.080149-5.54010216-12.85023697-.1900035-2.6300485.2550047-5.34509857 1.63503015-7.61014034C2.943105 12.81313013 4.9931428 11.23310099 7.33818605 10.4580867c1.33002452-.44000812 2.73505043-.63501171 4.13007616-.6400118h.10000184c.5200096 0 1.04001918.02500046 1.55502868.07500138.09500175-.24000443.20500378-.47500876.3200059-.7100131 1.13502093-2.26504177 3.2150593-4.03007431 5.67010456-4.83508916 1.18002177-.3850071 2.42504473-.56001033 3.6650676-.56501042h.08500156c1.34002471.01000019 2.68504952.21500397 3.98507349.5750106zm-15.32528262 8.4701562c-2.3700437.00500009-4.82008888.74501373-6.45011894 2.53004665-1.57502905 1.72503181-2.15503974 4.230078-2.06503808 6.52012024.01000018.27000498.03000055.54000996.05500101.81001494.34500636 3.49006436 1.88503476 6.82012577 3.97007321 9.66517823 2.79505155 3.81507036 6.63012227 6.91512752 11.01520313 8.55015768 2.81505192 1.04501927 5.96010992 1.50002766 8.74516127.61501134 2.14003947-.68501264 3.95007285-2.33504306 4.76508788-4.51008317.7000129-1.87503458.72501337-3.95007285.39500728-5.89510872-.76001401-4.53508363-3.3400616-8.6601597-6.62512217-11.87521899-2.8250521-2.76505099-6.290116-4.94509119-10.08518598-5.92010917-1.21502241-.31000572-2.46504546-.49000904-3.7200686-.49000904zm-.90501668 10.7751987c2.08003835-2.07503827 6.17511387-1.35502499 9.14516864 1.61502978s3.69006805 7.0651303 1.61502978 9.14516865c-2.08003835 2.07503826-6.17511387 1.35502499-9.14516864-1.61502978s-3.69006805-7.0651303-1.61502978-9.14516865zm23.91044093 5.20509599c.45500839-.23500434.88001623-.5150095 1.27502351-.86001586.7700142-.66501227 1.37002527-1.51502794 1.76503255-2.45004518.94501743-2.26004168.73501356-4.89009018-.04500083-7.24013352-1.0950202-3.29006067-3.30506095-6.17511388-6.0901123-8.28515279-2.43004482-1.84003393-5.34509858-3.11005735-8.36015418-3.18505873-.10000184-.0050001-.1950036-.0050001-.29500544-.0050001-1.82503365.0050001-3.68506795.5200096-5.0700935 1.71003154-.6350117.54501005-1.1550213 1.2150224-1.5400284 1.95503605 2.65504897.705013 5.19009572 1.95503606 7.47013776 3.52006492 3.7250687 2.5650473 6.86012651 6.01511092 8.97016542 10.0101846.81001494 1.5400284 1.4750272 3.15005809 1.9200354 4.83008907zm5.02509267-13.56025007c1.50502775-1.10002028 2.41004444-2.9450543 2.43004481-4.85008944.02500046-2.6250484-1.5350283-5.18009553-3.87507146-6.4801195-1.05001936-.58501079-2.24004131-.90501669-3.44006344-.91001678h-.04000074c-1.7300319.01000018-3.4600638.74501374-4.59008464 2.0500378-.11000203.1250023-.21000388.2550047-.30500563.3900072.29000535.14000258.5800107.28500525.86501595.43500802 1.87003449 1.00501853 3.57506593 2.3100426 5.05509323 3.83007063 1.58002913 1.61002969 2.92505394 3.49006436 3.90007192 5.53510207z"/>
</svg>
