<?xml version="1.0" encoding="utf-8"?>
<!-- Generator: Adobe Illustrator 22.1.0, SVG Export Plug-In . SVG Version: 6.00 Build 0)  -->
<svg version="1.1" id="Layer_1" xmlns="http://www.w3.org/2000/svg" xmlns:xlink="http://www.w3.org/1999/xlink" x="0px" y="0px"
	 viewBox="0 0 100 100" style="enable-background:new 0 0 100 100;" xml:space="preserve">
<style type="text/css">
	.st0{fill:none;stroke:#EB008B;stroke-width:3;stroke-miterlimit:10;}
	.st1{fill:#EB008B;}
	.st2{fill:none;stroke:#EB008B;stroke-width:2;stroke-miterlimit:10;}
	.st3{fill:none;stroke:#000000;stroke-width:3;stroke-miterlimit:10;}
	.st4{fill:none;stroke:#EB008B;stroke-width:3;stroke-linecap:round;stroke-linejoin:round;stroke-miterlimit:10;}
	.st5{fill:none;stroke:#EB008B;stroke-width:3;stroke-linecap:round;stroke-miterlimit:10;}
	.st6{fill:none;stroke:#EB008B;stroke-width:5;stroke-miterlimit:10;}
</style>
<g transform="matrix(1,0,0,1,-440,-880)">
	
		<ellipse transform="matrix(0.6542 -0.7563 0.7563 0.6542 -541.3629 687.6571)" class="st0" cx="481.3" cy="935.8" rx="12" ry="19.2"/>
	
		<ellipse transform="matrix(0.6542 -0.7563 0.7563 0.6542 -542.7971 686.7957)" class="st1" cx="479.6" cy="937" rx="5.1" ry="8.1"/>
	<path class="st0" d="M478.7,921c-0.2-2,0.3-3.8,1.5-5.1c3.3-3.8,10.8-2.6,16.9,2.6c6,5.2,8.3,12.5,5,16.3c-1.3,1.5-3.2,2.2-5.4,2.2
		"/>
	<path class="st0" d="M490.9,914.6c0-1.4,0.5-2.8,1.4-3.8c2.6-3,7.9-2.6,11.8,0.8c3.9,3.4,5,8.6,2.5,11.6c-1,1.2-2.4,1.8-4,2"/>
</g>
</svg>
