<?xml version="1.0" encoding="utf-8"?>
<!-- Generator: Adobe Illustrator 22.1.0, SVG Export Plug-In . SVG Version: 6.00 Build 0)  -->
<svg version="1.1" id="Layer_1" xmlns="http://www.w3.org/2000/svg" xmlns:xlink="http://www.w3.org/1999/xlink" x="0px" y="0px"
	 viewBox="0 0 100 100" style="enable-background:new 0 0 100 100;" xml:space="preserve">
<style type="text/css">
	.st0{fill:none;stroke:#EB008B;stroke-width:3;stroke-miterlimit:10;}
	.st1{fill:#EB008B;}
	.st2{fill:none;stroke:#EB008B;stroke-width:2;stroke-miterlimit:10;}
	.st3{fill:none;stroke:#000000;stroke-width:3;stroke-miterlimit:10;}
	.st4{fill:none;stroke:#EB008B;stroke-width:3;stroke-linecap:round;stroke-linejoin:round;stroke-miterlimit:10;}
	.st5{fill:none;stroke:#EB008B;stroke-width:3;stroke-linecap:round;stroke-miterlimit:10;}
	.st6{fill:none;stroke:#EB008B;stroke-width:5;stroke-miterlimit:10;}
</style>
<path class="st0" d="M26.3,81.4c0.4-4.3,1.1-5.5,1.3-8.3c-0.5-1.7-2.8-12.6-4.4-15.6c-2.7-6.3,0-14.5-0.8-23.1
	c-8.6-3.1-9.6-0.4-9.2-9.5c3.2-0.5,5.7-2.1,9.6-2.5c1.1-3.2,0.7-4.4,7.1-4.1c1-2.2,0.1-4.3,0.4-4.6c0.5-0.7,3.7,2.8,4,3.5
	c0.6,1.8-0.1,2.1,1.5,5.8c2.7,5.5,1.4,9.7,5.4,19.1c5.4,12.7,13.6,5.9,19,37.5c1.3-0.3,10.4-0.5,9.9-6c-0.3-4-7.2-8.9-1.8-9.8
	c3.7-0.5,13,9.9,6.4,16.3c-5.1,4.9-8.1,5.4-15.5,5.9c-3.4,0-23.7,0-23.7,0s-0.6-2-0.2-2.8c0.4-0.5,4.3-1.1,6.2-1.6
	c-1.4-1.4-1.8-4.3-0.4-6.6c0.9-1.5-0.1-3.5-1.7-3.8c-2.1-0.4-3.2-1.4-4.4-2.7c-2.1-2.2-2.6,0.5-2.4,1.8c0.2,1.7,0,2.8,0,4.8
	c-0.7,4.5-2.4,7.7-3.1,10.8h-7.6C20.9,83.4,25.3,81.3,26.3,81.4z"/>
</svg>
