<?xml version="1.0" encoding="utf-8"?>
<!-- Generator: Adobe Illustrator 22.1.0, SVG Export Plug-In . SVG Version: 6.00 Build 0)  -->
<svg version="1.1" id="Layer_1" xmlns="http://www.w3.org/2000/svg" xmlns:xlink="http://www.w3.org/1999/xlink" x="0px" y="0px"
	 viewBox="0 0 100 100" style="enable-background:new 0 0 100 100;" xml:space="preserve">
<style type="text/css">
	.st0{fill:none;stroke:#EB008B;stroke-width:3;stroke-miterlimit:10;}
	.st1{fill:#EB008B;}
	.st2{fill:none;stroke:#EB008B;stroke-width:2;stroke-miterlimit:10;}
	.st3{fill:none;stroke:#000000;stroke-width:3;stroke-miterlimit:10;}
	.st4{fill:none;stroke:#EB008B;stroke-width:3;stroke-linecap:round;stroke-linejoin:round;stroke-miterlimit:10;}
	.st5{fill:none;stroke:#EB008B;stroke-width:3;stroke-linecap:round;stroke-miterlimit:10;}
	.st6{fill:none;stroke:#EB008B;stroke-width:5;stroke-miterlimit:10;}
</style>
<g>
	<path class="st0" d="M74.4,37.7c-1.7,0.1-3.2,0.8-4.3,2.1l0,0c-1,1.1-1.5,2.5-1.6,4l-32,0.7c-0.6-3.4-3.8-5.7-7.2-5.2
		c-3.4,0.6-5.8,3.5-5.2,6.9c0.2,1,1.2,2.3,1.9,3.1c-1.8,2.9-1.5,6.9,1.4,8.7s6.8,1,8.6-2c0.6-0.9,0.9-1.9,1-3l32-0.7
		c0.6,3.4,3.8,5.7,7.2,5.2s5.8-3.4,5.2-6.8c-0.2-1-1.3-2.4-1.9-3.2c1.9-2.9,1.8-6.8-1.1-8.7C77.1,38,75.7,37.6,74.4,37.7z"/>
</g>
<line class="st6" x1="75.8" y1="24.2" x2="29.4" y2="72.4"/>
<line class="st6" x1="29.2" y1="24.9" x2="76" y2="71.7"/>
<g transform="translate(0,-952.36218)">
	<path class="st1" d="M78.2,1021.5c-0.7-1.1-1.8-1.6-3-1.6c-0.9,0-1.9,0.3-2.7,1c-0.8,0.7-1.5,1.3-2.4,1.8c0-0.1,0-0.1,0-0.2
		c-0.5-1.9-2.4-3.6-4.9-3.6c0,0,0,0-0.1,0c-5.3,0.2-10.7,0.3-15.3-0.6c-0.6-0.2-1.5-0.7-2.5-1.4c-1.2-0.7-2.2-1.5-3.3-1.8
		c-2.2-0.6-4.8-0.9-7.3-0.9c-1.6,0-3.7,0.3-5.2,0.7c-0.6,0.4-0.9,0.9-0.9,1.6c0,1.3,0.6,1.1,1.1,1.2c1.2-0.2,2.6-0.4,4.1-0.4v0
		c2.6-0.1,5.2,0.1,7.4,0.7c0.8,0.2,1.5,0.8,2.5,1.4c1.2,0.7,1.8,1.4,3.5,1.8c5.1,1.1,10.8,0.9,16.1,0.7c1.1,0,1.7,0.7,1.8,1.3
		c0,0.8-0.2,1-0.8,1.3c-2.3,0.9-4.8,1.4-7.1,1.6c-4.6,0.4-8.9-0.3-11.4-1c-0.8-0.2-1.7,0.3-1.9,1c-0.2,0.8,0.3,1.7,1,1.9
		c2.9,0.8,7.5,1.6,12.5,1.2c2.6-0.2,5.3-0.7,7.9-1.7c2.6-1,5.4-2.7,7.2-4.3c0.7-0.6,0.9-0.3,1-0.1c0.1,0.1,0.2,0.4,0,0.9
		c-0.2,0.6-0.7,1.4-1.7,2.5c-7.4,6.8-15.7,9.2-23.4,8.8c-7.2-0.3-13.9-3.1-18.5-6.7c-1.6-0.8-2.3,0.9-1.7,2.1c0.3,0.6,1,1.1,1.6,1.7
		c5,3.4,11.4,5.8,18.5,6.1c8.4,0.4,17.6-2.3,25.7-9.7c0,0,0,0,0,0c1.3-1.3,2.2-2.6,2.5-3.8C78.9,1023.8,78.8,1022.5,78.2,1021.5z"/>
</g>
</svg>
