<?xml version="1.0" encoding="utf-8"?>
<!-- Generator: Adobe Illustrator 22.1.0, SVG Export Plug-In . SVG Version: 6.00 Build 0)  -->
<svg version="1.1" id="Layer_1" xmlns="http://www.w3.org/2000/svg" xmlns:xlink="http://www.w3.org/1999/xlink" x="0px" y="0px"
	 viewBox="0 0 100 100" style="enable-background:new 0 0 100 100;" xml:space="preserve">
<style type="text/css">
	.st0{fill:none;stroke:#EB008B;stroke-width:3;stroke-miterlimit:10;}
	.st1{fill:#EB008B;}
	.st2{fill:none;stroke:#EB008B;stroke-width:2;stroke-miterlimit:10;}
	.st3{fill:none;stroke:#000000;stroke-width:3;stroke-miterlimit:10;}
	.st4{fill:none;stroke:#EB008B;stroke-width:3;stroke-linecap:round;stroke-linejoin:round;stroke-miterlimit:10;}
	.st5{fill:none;stroke:#EB008B;stroke-width:3;stroke-linecap:round;stroke-miterlimit:10;}
	.st6{fill:none;stroke:#EB008B;stroke-width:5;stroke-miterlimit:10;}
</style>
<g>
	<path class="st0" d="M70.3,37.7c-1.7,0.1-3.2,0.8-4.3,2.1l0,0c-1,1.1-1.5,2.5-1.6,4l-32,0.7c-0.6-3.4-3.8-5.7-7.2-5.2
		s-5.8,3.5-5.2,6.9c0.2,1,1.2,2.3,1.9,3.1c-1.8,2.9-1.5,6.9,1.4,8.7s6.8,1,8.6-2c0.6-0.9,0.9-1.9,1-3l32-0.7
		c0.6,3.4,3.8,5.7,7.2,5.2s5.8-3.4,5.2-6.8c-0.2-1-1.3-2.4-1.9-3.2c1.9-2.9,1.8-6.8-1.1-8.7C73.1,38,71.7,37.6,70.3,37.7z"/>
</g>
<line class="st6" x1="71.8" y1="24.2" x2="25.4" y2="72.4"/>
<line class="st6" x1="25.2" y1="24.9" x2="72" y2="71.7"/>
<g>
	<line class="st0" x1="8.6" y1="58.9" x2="8.6" y2="63"/>
	<line class="st0" x1="12.6" y1="58.9" x2="12.6" y2="63"/>
	<line class="st0" x1="16.6" y1="58.9" x2="16.6" y2="63"/>
	<line class="st0" x1="20.6" y1="58.9" x2="20.6" y2="63"/>
	<line class="st0" x1="24.6" y1="58.9" x2="24.6" y2="63"/>
	<line class="st0" x1="28.6" y1="58.9" x2="28.6" y2="63"/>
	<line class="st0" x1="32.6" y1="58.9" x2="32.6" y2="63"/>
	<line class="st0" x1="36.6" y1="58.9" x2="36.6" y2="63"/>
	<line class="st0" x1="40.6" y1="58.9" x2="40.6" y2="63"/>
	<line class="st0" x1="44.6" y1="58.9" x2="44.6" y2="63"/>
	<line class="st0" x1="48.6" y1="58.9" x2="48.6" y2="63"/>
	<line class="st0" x1="52.6" y1="58.9" x2="52.6" y2="63"/>
	<line class="st0" x1="56.6" y1="58.9" x2="56.6" y2="63"/>
	<line class="st0" x1="60.6" y1="58.9" x2="60.6" y2="63"/>
	<line class="st0" x1="64.6" y1="58.9" x2="64.6" y2="63"/>
	<line class="st0" x1="68.6" y1="58.9" x2="68.6" y2="63"/>
	<line class="st0" x1="72.6" y1="58.9" x2="72.6" y2="63"/>
	<line class="st0" x1="76.6" y1="58.9" x2="76.6" y2="63"/>
	<line class="st0" x1="80.6" y1="58.9" x2="80.6" y2="63"/>
	<line class="st0" x1="84.6" y1="58.9" x2="84.6" y2="63"/>
	<line class="st0" x1="88.6" y1="58.9" x2="88.6" y2="63"/>
</g>
</svg>
