<?xml version="1.0" encoding="utf-8"?>
<!-- Generator: Adobe Illustrator 22.1.0, SVG Export Plug-In . SVG Version: 6.00 Build 0)  -->
<svg version="1.1" id="Layer_1" xmlns="http://www.w3.org/2000/svg" xmlns:xlink="http://www.w3.org/1999/xlink" x="0px" y="0px"
	 viewBox="0 0 100 100" style="enable-background:new 0 0 100 100;" xml:space="preserve">
<style type="text/css">
	.st0{fill:none;stroke:#EB008B;stroke-width:3;stroke-miterlimit:10;}
	.st1{fill:#EB008B;}
	.st2{fill:none;stroke:#EB008B;stroke-width:2;stroke-miterlimit:10;}
	.st3{fill:none;stroke:#000000;stroke-width:3;stroke-miterlimit:10;}
	.st4{fill:none;stroke:#EB008B;stroke-width:3;stroke-linecap:round;stroke-linejoin:round;stroke-miterlimit:10;}
	.st5{fill:none;stroke:#EB008B;stroke-width:3;stroke-linecap:round;stroke-miterlimit:10;}
	.st6{fill:none;stroke:#EB008B;stroke-width:5;stroke-miterlimit:10;}
</style>
<g>
	<g>
		<path class="st0" d="M1.9,51.1c-0.2,0.5-0.1,1.1,0.3,1.6c0.4,0.5,3.1,3.4,7.2,2.3c1.3-0.2,12.8-2.8,12.8-2.8s8.6-2.7,10.6-2.3
			s4.8,3.8,9,4.4c4.3,0.6,5.7-0.5,8.2-0.8c2.7-0.4,5.5,0,6.8,1.8c1.3,1.8,1.2,6.4,2.7,7.9c2,2.2,7.4,2.7,8.7,3
			c0.6,0.1-2.3,3.4-4.1,5.6c-3.1,3.8,1,5.8,4.1,1.8c0.9-1.1,2.7-3.1,3.6-4.1c2.9,0.2,1.1,6.4,1,7.7c0,0-0.5,3.2,2,3.4
			c2.2,0.2,2.1-2.7,2.1-2.7s0.9-6.8,0.6-9.2c-0.3-2.4-2.6-2.8-3.2-3c-0.9-0.3,0.9-3.1,0.8-3.7c-0.3-1.1-5-1.6-4.6-2.5
			c0.4-0.9,1.2-3.2,1.4-3.8c0.3-0.8,0.5-1.9,0.8-3.3c0.1-0.4,0.2-3.4,0.2-3.4c0.5-1,16.2-0.2,24,7.4c-0.7-5-4.3-8.2-7-10
			c-5.3-3.4-19.7-3.2-19.7-3.2s-20.9-4.1-25.8-8.5c-3.5-3.1-5.1-6.5-4.4-11.5c0,0,2.4-7.1,0.4-8.2c-1.4-1-3.4,1.6-5.2,1.2
			c-6.9-1.5-8.5,1.9-8.5,1.9L18,18.8c-1.9,10.6,12.6,6.6,10.6,12.1c-2.7,7.2-0.4,10.3-1.7,9.9c-1.4-0.3-5.9-2.3-6.2-2.3
			c-0.3,0-0.7,0-0.9,0.2c-0.3,0.1-8,3.6-6.7,5.8c0.9,1.6,7.2-1.5,7.7-1.6c0.3,0,7.3,2.8,7.3,2.9c0,0.1-6.4,1.6-9.7,2.7
			C16.6,49.1,7.6,51.4,6.1,51c-0.4-0.1-3-0.8-3.4-0.7C2.3,50.3,2,50.7,1.9,51.1z"/>
	</g>
</g>
</svg>
